<?xml version="1.0" encoding="UTF-8" standalone="no"?>
<!-- Created with Inkscape (http://www.inkscape.org/) -->

<svg
   xmlns:dc="http://purl.org/dc/elements/1.1/"
   xmlns:cc="http://creativecommons.org/ns#"
   xmlns:rdf="http://www.w3.org/1999/02/22-rdf-syntax-ns#"
   xmlns:svg="http://www.w3.org/2000/svg"
   xmlns="http://www.w3.org/2000/svg"
   xmlns:sodipodi="http://sodipodi.sourceforge.net/DTD/sodipodi-0.dtd"
   xmlns:inkscape="http://www.inkscape.org/namespaces/inkscape"
   width="257.39374mm"
   height="59.986599mm"
   viewBox="0 0 257.39374 59.986599"
   version="1.1"
   id="svg8"
   inkscape:version="0.92.4 (5da689c313, 2019-01-14)"
   sodipodi:docname="ChessPiece.svg">
  <defs
     id="defs2" />
  <sodipodi:namedview
     id="base"
     pagecolor="#ffffff"
     bordercolor="#666666"
     borderopacity="1.0"
     inkscape:pageopacity="0.0"
     inkscape:pageshadow="2"
     inkscape:zoom="0.98994949"
     inkscape:cx="524.74801"
     inkscape:cy="47.740958"
     inkscape:document-units="mm"
     inkscape:current-layer="layer1"
     showgrid="false"
     fit-margin-top="0"
     fit-margin-left="0"
     fit-margin-right="0"
     fit-margin-bottom="0"
     inkscape:window-width="1366"
     inkscape:window-height="705"
     inkscape:window-x="-8"
     inkscape:window-y="-8"
     inkscape:window-maximized="1" />
  <metadata
     id="metadata5">
    <rdf:RDF>
      <cc:Work
         rdf:about="">
        <dc:format>image/svg+xml</dc:format>
        <dc:type
           rdf:resource="http://purl.org/dc/dcmitype/StillImage" />
        <dc:title></dc:title>
      </cc:Work>
    </rdf:RDF>
  </metadata>
  <g
     inkscape:label="Camada 1"
     inkscape:groupmode="layer"
     id="layer1"
     transform="translate(46.089007,-149.12365)">
    <g
       id="g74"
       transform="matrix(-1,0,0,1,190.92857,-18.89881)">
      <path
         sodipodi:nodetypes="cccccccccccccccccccccccccc"
         inkscape:connector-curvature="0"
         id="path62"
         d="m -20.245413,227.50906 c 0.68585,-4.46686 -0.52423,-7.32703 1.603618,-11.09168 0.908615,-1.66961 5.658255,-2.14616 8.018086,0 1.4122846,1.45939 2.5121127,3.11699 3.608138,4.81085 1.0831697,-9.06563 4.070228,-15.88523 7.48354715,-24.18789 11.04737185,3.22571 21.64906085,7.67545 32.33961285,11.89349 0.65766,-2.35152 1.529256,-2.86027 3.678314,-2.90368 1.402638,-0.0614 2.660821,1.45928 2.86979,3.15425 l 6.731851,-0.3842 c -0.187541,-2.46748 -0.359342,-4.90688 0.751695,-6.9156 1.805722,-3.00496 4.066075,-2.69781 5.445617,-0.26727 l 0.801809,1.5368 c 0.246604,0.52705 0.639995,0.14934 0.601353,-0.23386 -0.09838,-2.30908 0.338694,-4.83207 1.770664,-6.21402 1.795964,-1.79708 6.936149,-3.0577 10.223059,1.03567 1.582105,2.1553 1.586871,3.9469 1.703843,6.48129 38.018176,8.77074 74.608836,7.92955 105.822006,-7.33022 -0.61858,-2.11363 0.27045,-3.87708 1.52012,-4.46305 0.6214,-0.28246 1.83841,-0.47771 3.145,-0.47771 4.74923,0.16447 5.91493,-0.39676 10.01802,-2.2618 3.34174,-1.68177 4.096,-4.72749 5.7463,-7.55037 3.53154,-7.13025 10.65152,-7.36709 18.17433,-4.07586 -0.0419,-2.1092 1.23535,-3.74184 2.83973,-4.71062 2.65003,-1.63416 4.79183,-1.96843 9.32103,-0.16705 1.45865,-4.14296 3.2711,-4.57548 5.74629,-5.0113 3.43122,-0.27929 5.83358,2.26814 6.74856,7.58377"
         style="fill:none;stroke:#ff0000;stroke-width:0.26458332px;stroke-linecap:butt;stroke-linejoin:miter;stroke-opacity:1" />
      <path
         sodipodi:nodetypes="ccc"
         inkscape:connector-curvature="0"
         id="path70"
         d="M -20.245413,227.50906 236.51709,227.22507 236.46697,175.759"
         style="fill:none;stroke:#ffcc00;stroke-width:1;stroke-linecap:butt;stroke-linejoin:miter;stroke-opacity:1" />
    </g>
  </g>
</svg>
